<svg width="1200" height="630" viewBox="0 0 1200 630" xmlns="http://www.w3.org/2000/svg">
  <defs>
    <linearGradient id="bg" x1="0" y1="0" x2="1" y2="1">
      <stop offset="0" stop-color="#070b12"/>
      <stop offset="1" stop-color="#101c2b"/>
    </linearGradient>
    <linearGradient id="edge" x1="0" y1="0" x2="1" y2="1">
      <stop offset="0" stop-color="#74f0d7"/>
      <stop offset="0.6" stop-color="#38d9c1"/>
      <stop offset="1" stop-color="#9bc4db"/>
    </linearGradient>
  </defs>
  <rect width="1200" height="630" fill="url(#bg)"/>
  <g opacity="0.35">
    <path d="M0 520H1200" stroke="#74f0d7" stroke-opacity="0.35"/>
    <path d="M0 480H1200" stroke="#74f0d7" stroke-opacity="0.2"/>
    <path d="M0 440H1200" stroke="#74f0d7" stroke-opacity="0.12"/>
  </g>
  <g transform="translate(100,120)">
    <rect x="0" y="0" width="220" height="220" rx="46" fill="rgba(6,14,20,0.92)"/>
    <path d="M30 40h36l40 120 40-120h36L130 190h-12L30 40z" fill="none" stroke="url(#edge)" stroke-width="12" stroke-linecap="round" stroke-linejoin="round"/>
    <circle cx="110" cy="110" r="44" fill="none" stroke="#9bc4db" stroke-opacity="0.76" stroke-width="3"/>
    <circle cx="110" cy="66" r="6" fill="#74f0d7"/>
    <path d="M110 76v64" stroke="url(#edge)" stroke-width="4" stroke-linecap="round"/>
    <path d="M86 98h48" stroke="#9bc4db" stroke-width="3.2" stroke-linecap="round"/>
    <path d="M92 90l36 18" stroke="url(#edge)" stroke-width="2.7" stroke-linecap="round"/>
    <path d="M128 90l-36 18" stroke="url(#edge)" stroke-width="2.7" stroke-linecap="round"/>
    <path d="M110 140l-20 22" stroke="#9bc4db" stroke-width="3" stroke-linecap="round"/>
    <path d="M110 140l20 22" stroke="#9bc4db" stroke-width="3" stroke-linecap="round"/>
  </g>
  <text x="380" y="240" fill="#ecf3ff" font-size="64" font-family="Orbitron, Sora, sans-serif" letter-spacing="4">VITRUVIUS</text>
  <text x="384" y="292" fill="#74f0d7" font-size="28" font-family="Sora, sans-serif" letter-spacing="8">CYBER SYSTEMS</text>
  <text x="384" y="356" fill="#97adbf" font-size="30" font-family="Sora, sans-serif">AI Security • Zero Trust • Enterprise Resilience</text>
</svg>
